<?xml version="1.0" encoding="UTF-8"?>
<svg id="Layer_1" data-name="Layer 1" xmlns="http://www.w3.org/2000/svg" viewBox="0 0 896.6 454.9">
  <defs>
    <style>
      .cls-1 {
        stroke-width: 2px;
      }

      .cls-1, .cls-2, .cls-3, .cls-4, .cls-5, .cls-6, .cls-7, .cls-8, .cls-9, .cls-10, .cls-11, .cls-12, .cls-13, .cls-14 {
        stroke: #231f20;
        stroke-miterlimit: 10;
      }

      .cls-1, .cls-5, .cls-13 {
        fill: #00aeef;
      }

      .cls-2, .cls-4, .cls-6, .cls-7, .cls-12, .cls-14 {
        fill: none;
      }

      .cls-2, .cls-6, .cls-9 {
        stroke-width: 4px;
      }

      .cls-15 {
        fill: #b95c27;
      }

      .cls-3, .cls-4, .cls-5 {
        stroke-width: 3px;
      }

      .cls-3, .cls-10 {
        fill: #1d427c;
      }

      .cls-6, .cls-14 {
        stroke-linecap: round;
      }

      .cls-7, .cls-8, .cls-11, .cls-14 {
        stroke-width: 5px;
      }

      .cls-8 {
        fill: #fdcda0;
      }

      .cls-9, .cls-16 {
        fill: #1c75bc;
      }

      .cls-10, .cls-12 {
        stroke-width: 6px;
      }

      .cls-11 {
        fill: #f78e1e;
      }

      .cls-17 {
        fill: #3a619b;
      }

      .cls-18 {
        fill: #4978ad;
      }

      .cls-19 {
        fill: #4375ba;
      }

      .cls-13 {
        stroke-width: 1.5px;
      }

      .cls-20 {
        fill: #07364c;
      }

      .cls-21 {
        fill: #04273d;
      }
    </style>
  </defs>
  <path class="cls-11" d="M552.56,231.46l-38.12,39.68h-78.59l-48.94-40.14s-19.96,65.7-12.86,72.87l10.6,20.72,31.3-14.47v18.69c-13.61,3.87-21.97,9.09-21.97,14.83,0,11.94,36.05,21.62,80.53,21.62s80.53-9.68,80.53-21.62c0-6.43-10.47-12.2-27.08-16.17v-15.68l37.91,12.33,8.08-21.83c6.2-7.96-21.38-70.84-21.38-70.84Z"/>
  <polyline class="cls-15" points="539.51 246.92 548.07 257.69 560.86 255.57 554.47 229.68"/>
  <polyline class="cls-15" points="461.03 320.48 463.23 334.26 486.34 328.86 484.09 316.33"/>
  <path class="cls-15" d="M377.96,268.6l12.03,4.1-3.45,13.79s-10.59,19.86-12.62,15.84,4.04-31.68,4.04-31.68"/>
  <path class="cls-7" d="M552.56,231.46l-38.12,39.68h-78.59l-48.94-40.14s-19.96,65.7-12.86,72.87l10.6,20.72,31.3-14.47v18.69c-13.61,3.87-21.97,9.09-21.97,14.83,0,11.94,36.05,21.62,80.53,21.62s80.53-9.68,80.53-21.62c0-6.43-10.47-12.2-27.08-16.17v-15.68l37.91,12.33,8.08-21.83c6.2-7.96-21.38-70.84-21.38-70.84Z"/>
  <rect class="cls-3" x="464.49" y="309.47" width="22.7" height="13.71"/>
  <polygon class="cls-8" points="392.61 255.57 384.35 291.5 422.39 276.72 392.61 255.57"/>
  <polygon class="cls-8" points="549.87 256 521.07 279.01 560.06 291.07 549.87 256"/>
  <g>
    <circle class="cls-10" cx="530.14" cy="321.75" r="46.46"/>
    <circle class="cls-9" cx="530.14" cy="321.75" r="30.39"/>
    <g>
      <g>
        <line class="cls-4" x1="530.14" y1="275.29" x2="530.14" y2="291.37"/>
        <line class="cls-4" x1="552.64" y1="281.1" x2="543.78" y2="293.5"/>
        <line class="cls-4" x1="568.79" y1="295.97" x2="555.47" y2="305.89"/>
      </g>
      <g>
        <line class="cls-4" x1="575.82" y1="323.05" x2="559.75" y2="323.05"/>
        <line class="cls-4" x1="570.01" y1="345.56" x2="557.61" y2="336.7"/>
        <line class="cls-4" x1="555.14" y1="361.71" x2="545.22" y2="348.39"/>
      </g>
      <g>
        <line class="cls-4" x1="530.14" y1="368.22" x2="530.14" y2="352.14"/>
        <line class="cls-4" x1="507.64" y1="362.4" x2="516.49" y2="350"/>
        <line class="cls-4" x1="491.49" y1="347.54" x2="504.8" y2="337.62"/>
      </g>
      <g>
        <line class="cls-4" x1="500.53" y1="321.98" x2="484.45" y2="321.98"/>
        <line class="cls-4" x1="490.26" y1="299.48" x2="502.66" y2="308.34"/>
        <line class="cls-4" x1="505.13" y1="283.33" x2="515.05" y2="296.64"/>
      </g>
    </g>
    <path class="cls-13" d="M541.74,293.65l-39.46,42.31s5.33,11.49,18.8,14.65c17.19-16.3,37.1-38.57,37.1-38.57,0,0,2.57-2.7-7.33-10.79-12.1-9.88-9.11-7.6-9.11-7.6Z"/>
    <circle class="cls-2" cx="530.14" cy="321.75" r="30.39"/>
  </g>
  <g>
    <path class="cls-6" d="M462.56,353.4s3.53,8.24,11.36,1.91"/>
    <path class="cls-6" d="M486.04,353.15s-4.29,8.5-12.12,2.17"/>
  </g>
  <g>
    <path class="cls-14" d="M370.61,328.59c-25.91,4.56-30.8,17.67-30.8,17.67"/>
    <path class="cls-14" d="M372.52,334.94c-18.59,13.58-17.28,25.04-17.28,25.04"/>
  </g>
  <g>
    <path class="cls-14" d="M576.66,331.67c25.97,4.18,31.05,17.22,31.05,17.22"/>
    <path class="cls-14" d="M574.85,338.05c18.78,13.3,17.65,24.79,17.65,24.79"/>
  </g>
  <path class="cls-8" d="M452.22,272.63c4.59,10.09,11.18,12.01,11.18,12.01,0,0,8.37-3.29,9.51-12.11-9.86-.77-20.69.1-20.69.1Z"/>
  <path class="cls-8" d="M476.85,272.23c4.18,10.27,10.68,12.46,10.68,12.46,0,0,8.49-2.95,9.99-11.72-9.82-1.17-20.67-.74-20.67-.74Z"/>
  <line class="cls-5" x1="539.93" y1="246.3" x2="548.15" y2="256"/>
  <line class="cls-5" x1="561.98" y1="255.34" x2="549.49" y2="257.69"/>
  <line class="cls-1" x1="486.01" y1="330.06" x2="461.83" y2="334.19"/>
  <line class="cls-1" x1="390.36" y1="272.16" x2="378.33" y2="268.06"/>
  <g>
    <circle class="cls-10" cx="418.69" cy="321.75" r="46.46"/>
    <circle class="cls-9" cx="418.69" cy="321.75" r="30.39"/>
    <path class="cls-16" d="M382.04,346.58s-11.51-14.43-7.3-22.9c9.88-1.08,12.94.48,12.94.48,0,0,.32,9.16,3.97,12.25-4.95,5.48-9.61,10.17-9.61,10.17Z"/>
    <path class="cls-21" d="M456.51,295.05s12.08,18.49,7.87,28c-10.68-1.27-13.03-1.34-13.03-1.34,0,0-.74-11.59-4.84-16.44,5.14-5.57,10-10.22,10-10.22Z"/>
    <path class="cls-17" d="M458.56,345.56s-7.72,13.39-18.12,13.88c-3.65-10.12-4.63-12.25-4.63-12.25,0,0,7.85-4.65,10.35-10.49l12.4,8.86Z"/>
    <path class="cls-19" d="M396.02,284.68s11.44-10.39,21.49-7.69c.38,10.75.67,13.08.67,13.08,0,0-8.9,2.03-13.06,6.83l-9.1-12.22Z"/>
    <g>
      <line class="cls-4" x1="418.69" y1="275.29" x2="418.69" y2="291.37"/>
      <line class="cls-4" x1="441.19" y1="281.1" x2="432.33" y2="293.5"/>
      <line class="cls-4" x1="457.34" y1="295.97" x2="444.02" y2="305.89"/>
      <line class="cls-4" x1="464.38" y1="323.05" x2="448.3" y2="323.05"/>
      <line class="cls-4" x1="458.56" y1="345.56" x2="446.16" y2="336.7"/>
      <line class="cls-4" x1="443.7" y1="361.71" x2="433.78" y2="348.39"/>
      <line class="cls-4" x1="418.69" y1="368.22" x2="418.69" y2="352.14"/>
      <line class="cls-4" x1="396.19" y1="362.4" x2="405.04" y2="350"/>
      <line class="cls-4" x1="380.04" y1="347.54" x2="393.35" y2="337.62"/>
      <line class="cls-4" x1="389.08" y1="321.98" x2="373" y2="321.98"/>
      <line class="cls-4" x1="391.21" y1="308.34" x2="378.81" y2="299.48"/>
      <line class="cls-4" x1="393.68" y1="283.33" x2="403.6" y2="296.64"/>
    </g>
    <circle class="cls-12" cx="418.69" cy="321.75" r="46.46"/>
    <path class="cls-13" d="M430.29,292.65l-39.46,42.31s5.33,11.49,18.8,14.65c17.19-16.3,37.1-38.57,37.1-38.57,0,0,2.57-2.7-7.33-10.79-12.1-9.88-9.11-7.6-9.11-7.6Z"/>
    <circle class="cls-2" cx="418.69" cy="321.75" r="30.39"/>
  </g>
  <g>
    <circle class="cls-10" cx="530.31" cy="321.75" r="46.46"/>
    <circle class="cls-9" cx="530.31" cy="321.75" r="30.39"/>
    <path class="cls-16" d="M484.63,323.55s-.36-18.46,8.14-22.62c8.5,5.16,9.98,8.25,9.98,8.25,0,0-5.32,7.46-4.3,12.14-7.27,1.34-13.82,2.22-13.82,2.22Z"/>
    <path class="cls-21" d="M553.86,359.99s-14.43,12.19-23.47,7.02c2.37-10.5-.29-15.82-.29-15.82,0,0,11.61.46,16.85-3.12,5.01,5.69,6.91,11.92,6.91,11.92Z"/>
    <path class="cls-20" d="M508.17,361.25s-17.05-5.92-16.8-16.12c10.04-3.35,13.36-8.29,13.36-8.29,0,0,4.95,9.97,10.43,12.55-2.54,7.1-6.98,11.86-6.98,11.86Z"/>
    <path class="cls-18" d="M570.19,345.56s-7.72,13.39-18.12,13.88c-3.65-10.12-4.63-12.25-4.63-12.25,0,0,7.85-4.65,10.35-10.49l12.4,8.86Z"/>
    <path class="cls-19" d="M531.07,275.96s15.38-1.5,21.83,6.67c-6.12,8.85-7.27,10.89-7.27,10.89,0,0-8.35-3.69-14.55-2.32v-15.24Z"/>
    <g>
      <line class="cls-4" x1="530.31" y1="275.29" x2="530.31" y2="291.37"/>
      <line class="cls-4" x1="552.82" y1="281.1" x2="543.96" y2="293.5"/>
      <line class="cls-4" x1="568.97" y1="295.97" x2="555.65" y2="305.89"/>
      <line class="cls-4" x1="576" y1="323.05" x2="559.93" y2="323.05"/>
      <line class="cls-4" x1="570.19" y1="345.56" x2="557.79" y2="336.7"/>
      <line class="cls-4" x1="555.32" y1="361.71" x2="545.4" y2="348.39"/>
      <line class="cls-4" x1="530.31" y1="368.22" x2="530.31" y2="352.14"/>
      <line class="cls-4" x1="507.81" y1="362.4" x2="516.67" y2="350"/>
      <line class="cls-4" x1="491.66" y1="347.54" x2="504.98" y2="337.62"/>
      <line class="cls-4" x1="500.7" y1="321.98" x2="484.63" y2="321.98"/>
      <line class="cls-4" x1="502.84" y1="308.34" x2="490.44" y2="299.48"/>
      <line class="cls-4" x1="505.31" y1="283.33" x2="515.23" y2="296.64"/>
    </g>
    <circle class="cls-12" cx="530.31" cy="321.75" r="46.46"/>
    <path class="cls-13" d="M541.91,292.65l-39.46,42.31s5.33,11.49,18.8,14.65c17.19-16.3,37.1-38.57,37.1-38.57,0,0,2.57-2.7-7.33-10.79-12.1-9.88-9.11-7.6-9.11-7.6Z"/>
    <circle class="cls-2" cx="530.31" cy="321.75" r="30.39"/>
  </g>
</svg>